<mxfile host="app.diagrams.net" agent="Mozilla/5.0 (Windows NT 10.0; Win64; x64) AppleWebKit/537.36 (KHTML, like Gecko) Chrome/138.0.0.0 Safari/537.36" version="28.0.7">
  <diagram name="Page-1" id="HuSnWbpFSpdRyCEniAcv">
    <mxGraphModel dx="786" dy="497" grid="1" gridSize="10" guides="1" tooltips="1" connect="1" arrows="1" fold="1" page="1" pageScale="1" pageWidth="850" pageHeight="1100" math="0" shadow="0">
      <root>
        <mxCell id="0" />
        <mxCell id="1" parent="0" />
        <mxCell id="skAGZcVWfzFlX6PobNHA-1" value="" style="rounded=0;whiteSpace=wrap;html=1;fillColor=none;dashed=1;" parent="1" vertex="1">
          <mxGeometry x="50" y="130" width="120" height="290" as="geometry" />
        </mxCell>
        <mxCell id="skAGZcVWfzFlX6PobNHA-2" value="Sources" style="rounded=1;whiteSpace=wrap;html=1;strokeColor=none;" parent="1" vertex="1">
          <mxGeometry x="80" y="90" width="80" height="20" as="geometry" />
        </mxCell>
        <mxCell id="skAGZcVWfzFlX6PobNHA-14" style="edgeStyle=orthogonalEdgeStyle;rounded=0;orthogonalLoop=1;jettySize=auto;html=1;entryX=0;entryY=0.5;entryDx=0;entryDy=0;" parent="1" source="skAGZcVWfzFlX6PobNHA-3" target="skAGZcVWfzFlX6PobNHA-7" edge="1">
          <mxGeometry relative="1" as="geometry" />
        </mxCell>
        <mxCell id="skAGZcVWfzFlX6PobNHA-15" style="edgeStyle=orthogonalEdgeStyle;rounded=0;orthogonalLoop=1;jettySize=auto;html=1;entryX=0;entryY=0.5;entryDx=0;entryDy=0;" parent="1" source="skAGZcVWfzFlX6PobNHA-3" target="skAGZcVWfzFlX6PobNHA-8" edge="1">
          <mxGeometry relative="1" as="geometry">
            <Array as="points">
              <mxPoint x="215" y="214" />
            </Array>
          </mxGeometry>
        </mxCell>
        <mxCell id="skAGZcVWfzFlX6PobNHA-16" style="edgeStyle=orthogonalEdgeStyle;rounded=0;orthogonalLoop=1;jettySize=auto;html=1;entryX=0;entryY=0.5;entryDx=0;entryDy=0;" parent="1" source="skAGZcVWfzFlX6PobNHA-3" target="skAGZcVWfzFlX6PobNHA-9" edge="1">
          <mxGeometry relative="1" as="geometry">
            <Array as="points">
              <mxPoint x="180" y="214" />
              <mxPoint x="180" y="245" />
            </Array>
          </mxGeometry>
        </mxCell>
        <mxCell id="skAGZcVWfzFlX6PobNHA-3" value="&lt;font style=&quot;font-size: 16px;&quot;&gt;&lt;b style=&quot;&quot;&gt;CRM&lt;/b&gt;&lt;/font&gt;" style="image;aspect=fixed;html=1;points=[];align=center;fontSize=12;image=img/lib/azure2/general/Folder_Blank.svg;" parent="1" vertex="1">
          <mxGeometry x="100" y="197.53" width="40" height="32.47" as="geometry" />
        </mxCell>
        <mxCell id="skAGZcVWfzFlX6PobNHA-4" value="&lt;font style=&quot;font-size: 16px;&quot;&gt;&lt;b style=&quot;&quot;&gt;ERP&lt;/b&gt;&lt;/font&gt;" style="image;aspect=fixed;html=1;points=[];align=center;fontSize=12;image=img/lib/azure2/general/Folder_Blank.svg;" parent="1" vertex="1">
          <mxGeometry x="91.52" y="330" width="36.96" height="30" as="geometry" />
        </mxCell>
        <mxCell id="skAGZcVWfzFlX6PobNHA-5" value="" style="rounded=1;whiteSpace=wrap;html=1;fillColor=none;strokeColor=#d79b00;" parent="1" vertex="1">
          <mxGeometry x="210" y="140" width="130" height="280" as="geometry" />
        </mxCell>
        <mxCell id="skAGZcVWfzFlX6PobNHA-6" value="&lt;b&gt;Bronze Layer&lt;/b&gt;" style="rounded=0;whiteSpace=wrap;html=1;fillColor=#ffe6cc;strokeColor=#d79b00;" parent="1" vertex="1">
          <mxGeometry x="210" y="100" width="120" height="30" as="geometry" />
        </mxCell>
        <mxCell id="a4316D3Ew2pVO30wDxU9-10" style="edgeStyle=orthogonalEdgeStyle;rounded=0;orthogonalLoop=1;jettySize=auto;html=1;entryX=0;entryY=0.5;entryDx=0;entryDy=0;" edge="1" parent="1" source="skAGZcVWfzFlX6PobNHA-7" target="a4316D3Ew2pVO30wDxU9-3">
          <mxGeometry relative="1" as="geometry">
            <mxPoint x="390" y="160" as="targetPoint" />
          </mxGeometry>
        </mxCell>
        <mxCell id="skAGZcVWfzFlX6PobNHA-7" value="crm_sales_details" style="rounded=1;whiteSpace=wrap;html=1;fillColor=#ffe6cc;strokeColor=#d79b00;" parent="1" vertex="1">
          <mxGeometry x="220" y="150" width="110" height="30" as="geometry" />
        </mxCell>
        <mxCell id="a4316D3Ew2pVO30wDxU9-11" style="edgeStyle=orthogonalEdgeStyle;rounded=0;orthogonalLoop=1;jettySize=auto;html=1;" edge="1" parent="1" source="skAGZcVWfzFlX6PobNHA-8" target="a4316D3Ew2pVO30wDxU9-4">
          <mxGeometry relative="1" as="geometry" />
        </mxCell>
        <mxCell id="skAGZcVWfzFlX6PobNHA-8" value="crm_cust_info" style="rounded=1;whiteSpace=wrap;html=1;fillColor=#ffe6cc;strokeColor=#d79b00;" parent="1" vertex="1">
          <mxGeometry x="215" y="190" width="120" height="30" as="geometry" />
        </mxCell>
        <mxCell id="a4316D3Ew2pVO30wDxU9-12" style="edgeStyle=orthogonalEdgeStyle;rounded=0;orthogonalLoop=1;jettySize=auto;html=1;exitX=1;exitY=0.5;exitDx=0;exitDy=0;" edge="1" parent="1" source="skAGZcVWfzFlX6PobNHA-9" target="a4316D3Ew2pVO30wDxU9-5">
          <mxGeometry relative="1" as="geometry" />
        </mxCell>
        <mxCell id="skAGZcVWfzFlX6PobNHA-9" value="crm_prd_info" style="rounded=1;whiteSpace=wrap;html=1;fillColor=#ffe6cc;strokeColor=#d79b00;glass=0;" parent="1" vertex="1">
          <mxGeometry x="215" y="230" width="120" height="30" as="geometry" />
        </mxCell>
        <mxCell id="a4316D3Ew2pVO30wDxU9-13" style="edgeStyle=orthogonalEdgeStyle;rounded=0;orthogonalLoop=1;jettySize=auto;html=1;entryX=0;entryY=0.5;entryDx=0;entryDy=0;" edge="1" parent="1" source="skAGZcVWfzFlX6PobNHA-19" target="a4316D3Ew2pVO30wDxU9-6">
          <mxGeometry relative="1" as="geometry" />
        </mxCell>
        <mxCell id="skAGZcVWfzFlX6PobNHA-19" value="erp_cust_az12" style="rounded=1;whiteSpace=wrap;html=1;fillColor=#ffe6cc;strokeColor=#d79b00;" parent="1" vertex="1">
          <mxGeometry x="215" y="280" width="110" height="30" as="geometry" />
        </mxCell>
        <mxCell id="a4316D3Ew2pVO30wDxU9-14" style="edgeStyle=orthogonalEdgeStyle;rounded=0;orthogonalLoop=1;jettySize=auto;html=1;entryX=0;entryY=0.25;entryDx=0;entryDy=0;" edge="1" parent="1" source="skAGZcVWfzFlX6PobNHA-20" target="a4316D3Ew2pVO30wDxU9-7">
          <mxGeometry relative="1" as="geometry" />
        </mxCell>
        <mxCell id="skAGZcVWfzFlX6PobNHA-20" value="erp_loc_a101" style="rounded=1;whiteSpace=wrap;html=1;fillColor=#ffe6cc;strokeColor=#d79b00;" parent="1" vertex="1">
          <mxGeometry x="215" y="330" width="120" height="30" as="geometry" />
        </mxCell>
        <mxCell id="skAGZcVWfzFlX6PobNHA-21" value="erp_px_cat_g1v2" style="rounded=1;whiteSpace=wrap;html=1;fillColor=#ffe6cc;strokeColor=#d79b00;glass=0;" parent="1" vertex="1">
          <mxGeometry x="215" y="380" width="120" height="30" as="geometry" />
        </mxCell>
        <mxCell id="skAGZcVWfzFlX6PobNHA-23" style="edgeStyle=orthogonalEdgeStyle;rounded=0;orthogonalLoop=1;jettySize=auto;html=1;entryX=0.067;entryY=0.726;entryDx=0;entryDy=0;entryPerimeter=0;" parent="1" source="skAGZcVWfzFlX6PobNHA-4" target="skAGZcVWfzFlX6PobNHA-5" edge="1">
          <mxGeometry relative="1" as="geometry">
            <Array as="points">
              <mxPoint x="169" y="345" />
              <mxPoint x="169" y="343" />
            </Array>
          </mxGeometry>
        </mxCell>
        <mxCell id="skAGZcVWfzFlX6PobNHA-24" style="edgeStyle=orthogonalEdgeStyle;rounded=0;orthogonalLoop=1;jettySize=auto;html=1;entryX=0.046;entryY=0.562;entryDx=0;entryDy=0;entryPerimeter=0;" parent="1" source="skAGZcVWfzFlX6PobNHA-4" target="skAGZcVWfzFlX6PobNHA-5" edge="1">
          <mxGeometry relative="1" as="geometry">
            <Array as="points">
              <mxPoint x="180" y="345" />
              <mxPoint x="180" y="297" />
            </Array>
          </mxGeometry>
        </mxCell>
        <mxCell id="skAGZcVWfzFlX6PobNHA-25" style="edgeStyle=orthogonalEdgeStyle;rounded=0;orthogonalLoop=1;jettySize=auto;html=1;" parent="1" source="skAGZcVWfzFlX6PobNHA-4" target="skAGZcVWfzFlX6PobNHA-21" edge="1">
          <mxGeometry relative="1" as="geometry">
            <Array as="points">
              <mxPoint x="180" y="345" />
              <mxPoint x="180" y="399" />
            </Array>
          </mxGeometry>
        </mxCell>
        <mxCell id="a4316D3Ew2pVO30wDxU9-1" value="" style="rounded=1;whiteSpace=wrap;html=1;fillColor=#f5f5f5;strokeColor=#666666;fontColor=#333333;" vertex="1" parent="1">
          <mxGeometry x="400" y="140" width="130" height="280" as="geometry" />
        </mxCell>
        <mxCell id="a4316D3Ew2pVO30wDxU9-2" value="&lt;b&gt;Silver Layer&lt;/b&gt;" style="rounded=0;whiteSpace=wrap;html=1;fillColor=#f5f5f5;strokeColor=#666666;fontColor=#333333;" vertex="1" parent="1">
          <mxGeometry x="400" y="100" width="120" height="30" as="geometry" />
        </mxCell>
        <mxCell id="a4316D3Ew2pVO30wDxU9-3" value="crm_sales_details" style="rounded=1;whiteSpace=wrap;html=1;fillColor=#f5f5f5;strokeColor=#666666;fontColor=#333333;" vertex="1" parent="1">
          <mxGeometry x="410" y="150" width="110" height="30" as="geometry" />
        </mxCell>
        <mxCell id="a4316D3Ew2pVO30wDxU9-4" value="crm_cust_info" style="rounded=1;whiteSpace=wrap;html=1;fillColor=#f5f5f5;strokeColor=#666666;fontColor=#333333;" vertex="1" parent="1">
          <mxGeometry x="405" y="190" width="120" height="30" as="geometry" />
        </mxCell>
        <mxCell id="a4316D3Ew2pVO30wDxU9-6" value="erp_cust_az12" style="rounded=1;whiteSpace=wrap;html=1;fillColor=#f5f5f5;strokeColor=#666666;fontColor=#333333;" vertex="1" parent="1">
          <mxGeometry x="405" y="280" width="110" height="30" as="geometry" />
        </mxCell>
        <mxCell id="a4316D3Ew2pVO30wDxU9-7" value="erp_loc_a101" style="rounded=1;whiteSpace=wrap;html=1;fillColor=#f5f5f5;strokeColor=#666666;fontColor=#333333;" vertex="1" parent="1">
          <mxGeometry x="405" y="330" width="120" height="30" as="geometry" />
        </mxCell>
        <mxCell id="a4316D3Ew2pVO30wDxU9-8" value="erp_px_cat_g1v2" style="rounded=1;whiteSpace=wrap;html=1;fillColor=#f5f5f5;strokeColor=#666666;glass=0;fontColor=#333333;" vertex="1" parent="1">
          <mxGeometry x="405" y="380" width="120" height="30" as="geometry" />
        </mxCell>
        <mxCell id="a4316D3Ew2pVO30wDxU9-15" style="edgeStyle=orthogonalEdgeStyle;rounded=0;orthogonalLoop=1;jettySize=auto;html=1;entryX=0.026;entryY=0.917;entryDx=0;entryDy=0;entryPerimeter=0;" edge="1" parent="1" source="skAGZcVWfzFlX6PobNHA-21" target="a4316D3Ew2pVO30wDxU9-1">
          <mxGeometry relative="1" as="geometry" />
        </mxCell>
        <mxCell id="a4316D3Ew2pVO30wDxU9-26" value="" style="rounded=1;whiteSpace=wrap;html=1;fillColor=none;strokeColor=#d6b656;" vertex="1" parent="1">
          <mxGeometry x="610" y="140" width="130" height="280" as="geometry" />
        </mxCell>
        <mxCell id="a4316D3Ew2pVO30wDxU9-27" value="&lt;b&gt;Gold Layer&lt;/b&gt;" style="rounded=0;whiteSpace=wrap;html=1;fillColor=#fff2cc;strokeColor=#d6b656;" vertex="1" parent="1">
          <mxGeometry x="610" y="100" width="120" height="30" as="geometry" />
        </mxCell>
        <mxCell id="a4316D3Ew2pVO30wDxU9-28" value="fact_sales" style="rounded=1;whiteSpace=wrap;html=1;fillColor=#fff2cc;strokeColor=#d6b656;" vertex="1" parent="1">
          <mxGeometry x="620" y="190" width="110" height="30" as="geometry" />
        </mxCell>
        <mxCell id="a4316D3Ew2pVO30wDxU9-29" value="dim_customers" style="rounded=1;whiteSpace=wrap;html=1;fillColor=#fff2cc;strokeColor=#d6b656;" vertex="1" parent="1">
          <mxGeometry x="620" y="260" width="110" height="30" as="geometry" />
        </mxCell>
        <mxCell id="a4316D3Ew2pVO30wDxU9-30" value="dim_products" style="rounded=1;whiteSpace=wrap;html=1;fillColor=#fff2cc;strokeColor=#d6b656;glass=0;" vertex="1" parent="1">
          <mxGeometry x="615" y="330" width="120" height="30" as="geometry" />
        </mxCell>
        <mxCell id="a4316D3Ew2pVO30wDxU9-34" value="" style="endArrow=classic;html=1;rounded=0;" edge="1" parent="1" source="a4316D3Ew2pVO30wDxU9-5">
          <mxGeometry width="50" height="50" relative="1" as="geometry">
            <mxPoint x="380" y="290" as="sourcePoint" />
            <mxPoint x="430" y="240" as="targetPoint" />
          </mxGeometry>
        </mxCell>
        <mxCell id="a4316D3Ew2pVO30wDxU9-5" value="crm_prd_info" style="rounded=1;whiteSpace=wrap;html=1;fillColor=#f5f5f5;strokeColor=#666666;glass=0;fontColor=#333333;" vertex="1" parent="1">
          <mxGeometry x="405" y="230" width="120" height="30" as="geometry" />
        </mxCell>
        <mxCell id="a4316D3Ew2pVO30wDxU9-36" value="" style="endArrow=classic;html=1;rounded=0;entryX=0;entryY=0.5;entryDx=0;entryDy=0;exitX=1.01;exitY=0.117;exitDx=0;exitDy=0;exitPerimeter=0;jumpStyle=gap;" edge="1" parent="1" source="a4316D3Ew2pVO30wDxU9-1" target="a4316D3Ew2pVO30wDxU9-28">
          <mxGeometry width="50" height="50" relative="1" as="geometry">
            <mxPoint x="390" y="260" as="sourcePoint" />
            <mxPoint x="440" y="210" as="targetPoint" />
          </mxGeometry>
        </mxCell>
        <mxCell id="a4316D3Ew2pVO30wDxU9-37" value="" style="endArrow=classic;html=1;rounded=0;exitX=1;exitY=0.5;exitDx=0;exitDy=0;jumpStyle=gap;" edge="1" parent="1" source="a4316D3Ew2pVO30wDxU9-4">
          <mxGeometry width="50" height="50" relative="1" as="geometry">
            <mxPoint x="550" y="230" as="sourcePoint" />
            <mxPoint x="620" y="280" as="targetPoint" />
          </mxGeometry>
        </mxCell>
        <mxCell id="a4316D3Ew2pVO30wDxU9-38" value="" style="endArrow=classic;html=1;rounded=0;entryX=0;entryY=0.5;entryDx=0;entryDy=0;exitX=1.01;exitY=0.117;exitDx=0;exitDy=0;exitPerimeter=0;jumpStyle=gap;" edge="1" parent="1" target="a4316D3Ew2pVO30wDxU9-30">
          <mxGeometry width="50" height="50" relative="1" as="geometry">
            <mxPoint x="530" y="250" as="sourcePoint" />
            <mxPoint x="619" y="282" as="targetPoint" />
          </mxGeometry>
        </mxCell>
        <mxCell id="a4316D3Ew2pVO30wDxU9-39" value="" style="endArrow=classic;html=1;rounded=0;entryX=0;entryY=0.5;entryDx=0;entryDy=0;exitX=1;exitY=0.5;exitDx=0;exitDy=0;jumpStyle=gap;" edge="1" parent="1" source="a4316D3Ew2pVO30wDxU9-6" target="a4316D3Ew2pVO30wDxU9-29">
          <mxGeometry width="50" height="50" relative="1" as="geometry">
            <mxPoint x="550" y="330" as="sourcePoint" />
            <mxPoint x="639" y="362" as="targetPoint" />
          </mxGeometry>
        </mxCell>
        <mxCell id="a4316D3Ew2pVO30wDxU9-40" value="" style="endArrow=classic;html=1;rounded=0;entryX=0;entryY=0.5;entryDx=0;entryDy=0;exitX=1;exitY=0.5;exitDx=0;exitDy=0;jumpStyle=gap;" edge="1" parent="1" source="a4316D3Ew2pVO30wDxU9-7" target="a4316D3Ew2pVO30wDxU9-29">
          <mxGeometry width="50" height="50" relative="1" as="geometry">
            <mxPoint x="550" y="340" as="sourcePoint" />
            <mxPoint x="639" y="372" as="targetPoint" />
          </mxGeometry>
        </mxCell>
        <mxCell id="a4316D3Ew2pVO30wDxU9-41" value="" style="endArrow=classic;html=1;rounded=0;entryX=0;entryY=0.5;entryDx=0;entryDy=0;exitX=1;exitY=0.5;exitDx=0;exitDy=0;jumpStyle=gap;" edge="1" parent="1" source="a4316D3Ew2pVO30wDxU9-8" target="a4316D3Ew2pVO30wDxU9-30">
          <mxGeometry width="50" height="50" relative="1" as="geometry">
            <mxPoint x="550" y="400" as="sourcePoint" />
            <mxPoint x="639" y="432" as="targetPoint" />
          </mxGeometry>
        </mxCell>
      </root>
    </mxGraphModel>
  </diagram>
</mxfile>
